<svg id="visual" viewBox="0 0 800 100" width="800" height="100" xmlns="http://www.w3.org/2000/svg" xmlns:xlink="http://www.w3.org/1999/xlink" version="1.1"><path d="M0 51L7.3 50.8C14.7 50.7 29.3 50.3 44.2 47.7C59 45 74 40 88.8 39.5C103.7 39 118.3 43 133.2 45.7C148 48.3 163 49.7 177.8 48.7C192.7 47.7 207.3 44.3 222.2 43.3C237 42.3 252 43.7 266.8 47.5C281.7 51.3 296.3 57.7 311.2 57.2C326 56.7 341 49.3 355.8 47.5C370.7 45.7 385.3 49.3 400 50.2C414.7 51 429.3 49 444.2 49.2C459 49.3 474 51.7 488.8 54.5C503.7 57.3 518.3 60.7 533.2 58.5C548 56.3 563 48.7 577.8 46.7C592.7 44.7 607.3 48.3 622.2 47.5C637 46.7 652 41.3 666.8 41.2C681.7 41 696.3 46 711.2 48.8C726 51.7 741 52.3 755.8 51.8C770.7 51.3 785.3 49.7 792.7 48.8L800 48L800 101L792.7 101C785.3 101 770.7 101 755.8 101C741 101 726 101 711.2 101C696.3 101 681.7 101 666.8 101C652 101 637 101 622.2 101C607.3 101 592.7 101 577.8 101C563 101 548 101 533.2 101C518.3 101 503.7 101 488.8 101C474 101 459 101 444.2 101C429.3 101 414.7 101 400 101C385.3 101 370.7 101 355.8 101C341 101 326 101 311.2 101C296.3 101 281.7 101 266.8 101C252 101 237 101 222.2 101C207.3 101 192.7 101 177.8 101C163 101 148 101 133.2 101C118.3 101 103.7 101 88.8 101C74 101 59 101 44.2 101C29.3 101 14.7 101 7.3 101L0 101Z" fill="#556b2f" stroke-linecap="round" stroke-linejoin="miter"></path></svg>