<svg id="visual" viewBox="0 0 900 450" width="900" height="450" xmlns="http://www.w3.org/2000/svg" xmlns:xlink="http://www.w3.org/1999/xlink" version="1.1"><rect x="0" y="0" width="900" height="450" fill="#fff"></rect><path d="M0 155L21.5 154.3C43 153.7 86 152.3 128.8 168.3C171.7 184.3 214.3 217.7 257.2 226.2C300 234.7 343 218.3 385.8 221.5C428.7 224.7 471.3 247.3 514.2 252.5C557 257.7 600 245.3 642.8 219.7C685.7 194 728.3 155 771.2 152.7C814 150.3 857 184.7 878.5 201.8L900 219L900 451L878.5 451C857 451 814 451 771.2 451C728.3 451 685.7 451 642.8 451C600 451 557 451 514.2 451C471.3 451 428.7 451 385.8 451C343 451 300 451 257.2 451C214.3 451 171.7 451 128.8 451C86 451 43 451 21.5 451L0 451Z" fill="#9ab973"></path><path d="M0 262L21.5 266C43 270 86 278 128.8 274.8C171.7 271.7 214.3 257.3 257.2 266C300 274.7 343 306.3 385.8 316C428.7 325.7 471.3 313.3 514.2 283.8C557 254.3 600 207.7 642.8 192C685.7 176.3 728.3 191.7 771.2 194.5C814 197.3 857 187.7 878.5 182.8L900 178L900 451L878.5 451C857 451 814 451 771.2 451C728.3 451 685.7 451 642.8 451C600 451 557 451 514.2 451C471.3 451 428.7 451 385.8 451C343 451 300 451 257.2 451C214.3 451 171.7 451 128.8 451C86 451 43 451 21.5 451L0 451Z" fill="#6aa67c"></path><path d="M0 303L21.5 306.8C43 310.7 86 318.3 128.8 314C171.7 309.7 214.3 293.3 257.2 277.8C300 262.3 343 247.7 385.8 256C428.7 264.3 471.3 295.7 514.2 306.7C557 317.7 600 308.3 642.8 307.8C685.7 307.3 728.3 315.7 771.2 317.5C814 319.3 857 314.7 878.5 312.3L900 310L900 451L878.5 451C857 451 814 451 771.2 451C728.3 451 685.7 451 642.8 451C600 451 557 451 514.2 451C471.3 451 428.7 451 385.8 451C343 451 300 451 257.2 451C214.3 451 171.7 451 128.8 451C86 451 43 451 21.5 451L0 451Z" fill="#4a8f80"></path><path d="M0 302L21.5 306.2C43 310.3 86 318.7 128.8 330.7C171.7 342.7 214.3 358.3 257.2 357.2C300 356 343 338 385.8 327.3C428.7 316.7 471.3 313.3 514.2 305.5C557 297.7 600 285.3 642.8 293.5C685.7 301.7 728.3 330.3 771.2 345.2C814 360 857 361 878.5 361.5L900 362L900 451L878.5 451C857 451 814 451 771.2 451C728.3 451 685.7 451 642.8 451C600 451 557 451 514.2 451C471.3 451 428.7 451 385.8 451C343 451 300 451 257.2 451C214.3 451 171.7 451 128.8 451C86 451 43 451 21.5 451L0 451Z" fill="#3f7779"></path><path d="M0 372L21.5 361.8C43 351.7 86 331.3 128.8 323.2C171.7 315 214.3 319 257.2 333.5C300 348 343 373 385.8 384.2C428.7 395.3 471.3 392.7 514.2 382.7C557 372.7 600 355.3 642.8 350.2C685.7 345 728.3 352 771.2 358.7C814 365.3 857 371.7 878.5 374.8L900 378L900 451L878.5 451C857 451 814 451 771.2 451C728.3 451 685.7 451 642.8 451C600 451 557 451 514.2 451C471.3 451 428.7 451 385.8 451C343 451 300 451 257.2 451C214.3 451 171.7 451 128.8 451C86 451 43 451 21.5 451L0 451Z" fill="#405e68"></path><path d="M0 405L21.5 399.3C43 393.7 86 382.3 128.8 374C171.7 365.7 214.3 360.3 257.2 359.3C300 358.3 343 361.7 385.8 362C428.7 362.3 471.3 359.7 514.2 366C557 372.3 600 387.7 642.8 391.5C685.7 395.3 728.3 387.7 771.2 387.2C814 386.7 857 393.3 878.5 396.7L900 400L900 451L878.5 451C857 451 814 451 771.2 451C728.3 451 685.7 451 642.8 451C600 451 557 451 514.2 451C471.3 451 428.7 451 385.8 451C343 451 300 451 257.2 451C214.3 451 171.7 451 128.8 451C86 451 43 451 21.5 451L0 451Z" fill="#3f474e"></path></svg>