<svg id="visual" viewBox="0 0 800 100" width="800" height="100" xmlns="http://www.w3.org/2000/svg" xmlns:xlink="http://www.w3.org/1999/xlink" version="1.1"><path d="M0 45L7.3 44.8C14.7 44.7 29.3 44.3 44.2 46.2C59 48 74 52 88.8 53.2C103.7 54.3 118.3 52.7 133.2 52.2C148 51.7 163 52.3 177.8 52.2C192.7 52 207.3 51 222.2 48C237 45 252 40 266.8 39.2C281.7 38.3 296.3 41.7 311.2 44.2C326 46.7 341 48.3 355.8 46.7C370.7 45 385.3 40 400 38.8C414.7 37.7 429.3 40.3 444.2 43.7C459 47 474 51 488.8 53.7C503.7 56.3 518.3 57.7 533.2 56.5C548 55.3 563 51.7 577.8 49.2C592.7 46.7 607.3 45.3 622.2 45.5C637 45.7 652 47.3 666.8 45.8C681.7 44.3 696.3 39.7 711.2 37.8C726 36 741 37 755.8 38.8C770.7 40.7 785.3 43.3 792.7 44.7L800 46L800 0L792.7 0C785.3 0 770.7 0 755.8 0C741 0 726 0 711.2 0C696.3 0 681.7 0 666.8 0C652 0 637 0 622.2 0C607.3 0 592.7 0 577.8 0C563 0 548 0 533.2 0C518.3 0 503.7 0 488.8 0C474 0 459 0 444.2 0C429.3 0 414.7 0 400 0C385.3 0 370.7 0 355.8 0C341 0 326 0 311.2 0C296.3 0 281.7 0 266.8 0C252 0 237 0 222.2 0C207.3 0 192.7 0 177.8 0C163 0 148 0 133.2 0C118.3 0 103.7 0 88.8 0C74 0 59 0 44.2 0C29.3 0 14.7 0 7.3 0L0 0Z" fill="#556b2f" stroke-linecap="round" stroke-linejoin="miter"></path></svg>