<svg xmlns="http://www.w3.org/2000/svg" viewBox="0 0 30 30"><path d="M 6 4 C 4.895 4 4 4.895 4 6 L 4 9 C 4 9.552 4.448 10 5 10 L 25 10 C 25.552 10 26 9.552 26 9 L 26 6 C 26 4.895 25.105 4 24 4 L 6 4 z M 5 12 C 4.448 12 4 12.448 4 13 L 4 17 C 4 17.552 4.448 18 5 18 L 18.685547 18 C 19.811547 15.639 22.215 14 25 14 C 25.34 14 25.672 14.033078 26 14.080078 L 26 13 C 26 12.448 25.552 12 25 12 L 5 12 z M 25 16 C 22.239 16 20 18.239 20 21 C 20 21.595 20.1215 22.1585 20.3125 22.6875 L 16 27 L 16 29.992188 L 19 30 L 19 28 L 21 28 L 23.3125 25.6875 C 23.8415 25.8785 24.405 26 25 26 C 27.761 26 30 23.761 30 21 C 30 18.239 27.761 16 25 16 z M 25.5 19 C 26.328 19 27 19.672 27 20.5 C 27 21.328 26.328 22 25.5 22 C 24.672 22 24 21.328 24 20.5 C 24 19.672 24.672 19 25.5 19 z M 5 20 C 4.448 20 4 20.448 4 21 L 4 24 C 4 25.105 4.895 26 6 26 L 14.171875 26 L 14.585938 25.585938 L 18.091797 22.080078 C 18.030797 21.717078 18 21.357 18 21 C 18 20.66 18.033078 20.328 18.080078 20 L 5 20 z"></path></svg>