<svg version="1" xmlns="http://www.w3.org/2000/svg" width="682.667" height="682.667" viewBox="0 0 512.000000 512.000000"><path d="M90.4 34c-9.2 5.2-13.6 12.3-15 24-.5 4.1-.9 97.3-.9 208.5 0 195.7.1 201.1 1.9 206 2.5 6.5 9.4 13.7 15.9 16.6l5.2 2.4h158c153.3 0 158.1-.1 163-1.9 6.5-2.5 13.7-9.4 16.6-15.9l2.3-5.2.9-97c1-127.2.4-298.5-1.3-312-1.3-11.3-3.5-16-9.9-21.8-7.5-6.7-7.6-6.8-32.8-6.5l-22.8.3-.3 89.2-.2 89.2-19.4-13.5c-10.7-7.3-20-13.4-20.8-13.4-.7 0-9.8 6.1-20.3 13.4l-19 13.3-.3-89.3L291 31H95.5l-5.1 3z"/></svg>